<mxfile host="65bd71144e">
    <diagram id="1qcAR_hYLeLONG2qynyb" name="Page-1">
        <mxGraphModel dx="735" dy="377" grid="1" gridSize="10" guides="1" tooltips="1" connect="1" arrows="1" fold="1" page="1" pageScale="1" pageWidth="1169" pageHeight="827" math="0" shadow="0">
            <root>
                <mxCell id="0"/>
                <mxCell id="1" parent="0"/>
                <mxCell id="2" value="&lt;i&gt;FSEntry&lt;/i&gt;" style="rounded=0;whiteSpace=wrap;html=1;fillColor=#1ba1e2;fontColor=#ffffff;strokeColor=#006EAF;" vertex="1" parent="1">
                    <mxGeometry x="320" y="360" width="120" height="40" as="geometry"/>
                </mxCell>
                <mxCell id="7" style="edgeStyle=orthogonalEdgeStyle;jumpSize=11;html=1;exitX=0.5;exitY=0;exitDx=0;exitDy=0;entryX=0.5;entryY=1;entryDx=0;entryDy=0;startArrow=none;startFill=0;endArrow=block;endFill=0;startSize=12;endSize=12;" edge="1" parent="1" source="3" target="2">
                    <mxGeometry relative="1" as="geometry"/>
                </mxCell>
                <mxCell id="3" value="File" style="rounded=0;whiteSpace=wrap;html=1;" vertex="1" parent="1">
                    <mxGeometry x="200" y="460" width="120" height="40" as="geometry"/>
                </mxCell>
                <mxCell id="5" style="edgeStyle=none;html=1;exitX=0;exitY=0.75;exitDx=0;exitDy=0;entryX=1;entryY=0.75;entryDx=0;entryDy=0;startArrow=diamond;startFill=1;jumpSize=11;endSize=12;startSize=12;endArrow=none;endFill=0;" edge="1" parent="1" source="4" target="3">
                    <mxGeometry relative="1" as="geometry"/>
                </mxCell>
                <mxCell id="8" style="edgeStyle=orthogonalEdgeStyle;jumpSize=11;html=1;exitX=0.5;exitY=0;exitDx=0;exitDy=0;startArrow=none;startFill=0;endArrow=block;endFill=0;startSize=12;endSize=12;" edge="1" parent="1" source="4">
                    <mxGeometry relative="1" as="geometry">
                        <mxPoint x="380" y="400" as="targetPoint"/>
                    </mxGeometry>
                </mxCell>
                <mxCell id="4" value="Folder" style="rounded=0;whiteSpace=wrap;html=1;" vertex="1" parent="1">
                    <mxGeometry x="440" y="460" width="120" height="40" as="geometry"/>
                </mxCell>
                <mxCell id="6" style="edgeStyle=none;jumpSize=11;html=1;exitX=0.75;exitY=1;exitDx=0;exitDy=0;entryX=1;entryY=0.5;entryDx=0;entryDy=0;startArrow=diamond;startFill=1;endArrow=none;endFill=0;startSize=12;endSize=12;" edge="1" parent="1" source="4" target="4">
                    <mxGeometry relative="1" as="geometry">
                        <Array as="points">
                            <mxPoint x="530" y="530"/>
                            <mxPoint x="590" y="530"/>
                            <mxPoint x="590" y="480"/>
                        </Array>
                    </mxGeometry>
                </mxCell>
                <mxCell id="9" value="FilePermissions" style="rounded=0;whiteSpace=wrap;html=1;" vertex="1" parent="1">
                    <mxGeometry x="320" y="280" width="120" height="40" as="geometry"/>
                </mxCell>
                <mxCell id="10" style="edgeStyle=none;html=1;exitX=0.5;exitY=0;exitDx=0;exitDy=0;entryX=0.5;entryY=1;entryDx=0;entryDy=0;startArrow=diamond;startFill=1;jumpSize=11;endSize=12;startSize=12;endArrow=none;endFill=0;" edge="1" parent="1" source="2" target="9">
                    <mxGeometry relative="1" as="geometry">
                        <mxPoint x="450" y="500" as="sourcePoint"/>
                        <mxPoint x="330" y="500" as="targetPoint"/>
                    </mxGeometry>
                </mxCell>
                <mxCell id="11" value="&lt;i&gt;Principal&lt;/i&gt;" style="rounded=0;whiteSpace=wrap;html=1;fillColor=#1ba1e2;fontColor=#ffffff;strokeColor=#006EAF;" vertex="1" parent="1">
                    <mxGeometry x="320" y="200" width="120" height="40" as="geometry"/>
                </mxCell>
                <mxCell id="12" style="edgeStyle=none;html=1;exitX=0.5;exitY=1;exitDx=0;exitDy=0;entryX=0.5;entryY=0;entryDx=0;entryDy=0;startArrow=diamond;startFill=1;jumpSize=11;endSize=12;startSize=12;endArrow=none;endFill=0;" edge="1" parent="1" source="11" target="9">
                    <mxGeometry relative="1" as="geometry">
                        <mxPoint x="390" y="370" as="sourcePoint"/>
                        <mxPoint x="390" y="330" as="targetPoint"/>
                    </mxGeometry>
                </mxCell>
                <mxCell id="13" value="User" style="rounded=0;whiteSpace=wrap;html=1;" vertex="1" parent="1">
                    <mxGeometry x="200" y="100" width="120" height="40" as="geometry"/>
                </mxCell>
                <mxCell id="14" value="Group" style="rounded=0;whiteSpace=wrap;html=1;" vertex="1" parent="1">
                    <mxGeometry x="440" y="100" width="120" height="40" as="geometry"/>
                </mxCell>
                <mxCell id="15" style="edgeStyle=none;html=1;exitX=0;exitY=0.5;exitDx=0;exitDy=0;entryX=1;entryY=0.5;entryDx=0;entryDy=0;startArrow=diamond;startFill=1;jumpSize=11;endSize=12;startSize=12;endArrow=none;endFill=0;" edge="1" parent="1" source="14" target="13">
                    <mxGeometry relative="1" as="geometry">
                        <mxPoint x="450" y="500" as="sourcePoint"/>
                        <mxPoint x="330" y="500" as="targetPoint"/>
                    </mxGeometry>
                </mxCell>
                <mxCell id="16" style="edgeStyle=orthogonalEdgeStyle;jumpSize=11;html=1;exitX=0.5;exitY=1;exitDx=0;exitDy=0;entryX=0.5;entryY=0;entryDx=0;entryDy=0;startArrow=none;startFill=0;endArrow=block;endFill=0;startSize=12;endSize=12;" edge="1" parent="1" source="13" target="11">
                    <mxGeometry relative="1" as="geometry">
                        <mxPoint x="270" y="470" as="sourcePoint"/>
                        <mxPoint x="390" y="410" as="targetPoint"/>
                    </mxGeometry>
                </mxCell>
                <mxCell id="17" style="edgeStyle=orthogonalEdgeStyle;jumpSize=11;html=1;exitX=0.5;exitY=1;exitDx=0;exitDy=0;startArrow=none;startFill=0;endArrow=block;endFill=0;startSize=12;endSize=12;" edge="1" parent="1" source="14">
                    <mxGeometry relative="1" as="geometry">
                        <mxPoint x="270" y="150" as="sourcePoint"/>
                        <mxPoint x="380" y="200" as="targetPoint"/>
                    </mxGeometry>
                </mxCell>
                <mxCell id="18" style="edgeStyle=none;jumpSize=11;html=1;entryX=1;entryY=0.5;entryDx=0;entryDy=0;startArrow=diamond;startFill=1;endArrow=none;endFill=0;startSize=12;endSize=12;exitX=0.75;exitY=1;exitDx=0;exitDy=0;" edge="1" parent="1" source="14" target="14">
                    <mxGeometry relative="1" as="geometry">
                        <mxPoint x="540" y="210" as="sourcePoint"/>
                        <mxPoint x="570" y="160" as="targetPoint"/>
                        <Array as="points">
                            <mxPoint x="530" y="170"/>
                            <mxPoint x="590" y="170"/>
                            <mxPoint x="590" y="120"/>
                        </Array>
                    </mxGeometry>
                </mxCell>
                <mxCell id="22" style="edgeStyle=orthogonalEdgeStyle;jumpSize=11;html=1;exitX=1;exitY=0.5;exitDx=0;exitDy=0;entryX=0;entryY=0.5;entryDx=0;entryDy=0;startArrow=none;startFill=0;endArrow=open;endFill=0;startSize=12;endSize=12;dashed=1;" edge="1" parent="1" source="19" target="2">
                    <mxGeometry relative="1" as="geometry">
                        <Array as="points">
                            <mxPoint x="280" y="220"/>
                            <mxPoint x="280" y="380"/>
                        </Array>
                    </mxGeometry>
                </mxCell>
                <mxCell id="19" value="&lt;i&gt;AnonymShare&lt;/i&gt;" style="rounded=0;whiteSpace=wrap;html=1;fillColor=#1ba1e2;fontColor=#ffffff;strokeColor=#006EAF;" vertex="1" parent="1">
                    <mxGeometry x="40" y="200" width="120" height="40" as="geometry"/>
                </mxCell>
                <mxCell id="20" value="ViewShare" style="rounded=0;whiteSpace=wrap;html=1;" vertex="1" parent="1">
                    <mxGeometry x="130" y="260" width="120" height="40" as="geometry"/>
                </mxCell>
                <mxCell id="21" value="EditShare" style="rounded=0;whiteSpace=wrap;html=1;" vertex="1" parent="1">
                    <mxGeometry x="130" y="320" width="120" height="40" as="geometry"/>
                </mxCell>
                <mxCell id="23" style="edgeStyle=orthogonalEdgeStyle;jumpSize=11;html=1;exitX=0;exitY=0.5;exitDx=0;exitDy=0;entryX=0.5;entryY=1;entryDx=0;entryDy=0;startArrow=none;startFill=0;endArrow=block;endFill=0;startSize=12;endSize=12;" edge="1" parent="1" source="20" target="19">
                    <mxGeometry relative="1" as="geometry">
                        <mxPoint x="270" y="470" as="sourcePoint"/>
                        <mxPoint x="390" y="410" as="targetPoint"/>
                    </mxGeometry>
                </mxCell>
                <mxCell id="24" style="edgeStyle=orthogonalEdgeStyle;jumpSize=11;html=1;exitX=0;exitY=0.5;exitDx=0;exitDy=0;startArrow=none;startFill=0;endArrow=block;endFill=0;startSize=12;endSize=12;entryX=0.5;entryY=1;entryDx=0;entryDy=0;" edge="1" parent="1" source="21" target="19">
                    <mxGeometry relative="1" as="geometry">
                        <mxPoint x="130" y="290" as="sourcePoint"/>
                        <mxPoint x="80" y="270" as="targetPoint"/>
                    </mxGeometry>
                </mxCell>
                <mxCell id="25" value="Text" style="text;html=1;strokeColor=none;fillColor=none;align=center;verticalAlign=middle;whiteSpace=wrap;rounded=0;" vertex="1" parent="1">
                    <mxGeometry x="290" y="330" width="60" height="30" as="geometry"/>
                </mxCell>
                <mxCell id="27" value="*" style="text;html=1;strokeColor=none;fillColor=none;align=center;verticalAlign=middle;whiteSpace=wrap;rounded=0;" vertex="1" parent="1">
                    <mxGeometry x="380" y="260" width="20" height="20" as="geometry"/>
                </mxCell>
                <mxCell id="28" value="*" style="text;html=1;strokeColor=none;fillColor=none;align=center;verticalAlign=middle;whiteSpace=wrap;rounded=0;" vertex="1" parent="1">
                    <mxGeometry x="380" y="320" width="20" height="20" as="geometry"/>
                </mxCell>
                <mxCell id="29" value="*" style="text;html=1;strokeColor=none;fillColor=none;align=center;verticalAlign=middle;whiteSpace=wrap;rounded=0;" vertex="1" parent="1">
                    <mxGeometry x="320" y="470" width="20" height="20" as="geometry"/>
                </mxCell>
                <mxCell id="30" value="*" style="text;html=1;strokeColor=none;fillColor=none;align=center;verticalAlign=middle;whiteSpace=wrap;rounded=0;" vertex="1" parent="1">
                    <mxGeometry x="560" y="460" width="20" height="20" as="geometry"/>
                </mxCell>
                <mxCell id="31" value="*" style="text;html=1;strokeColor=none;fillColor=none;align=center;verticalAlign=middle;whiteSpace=wrap;rounded=0;" vertex="1" parent="1">
                    <mxGeometry x="560" y="100" width="20" height="20" as="geometry"/>
                </mxCell>
                <mxCell id="32" value="*" style="text;html=1;strokeColor=none;fillColor=none;align=center;verticalAlign=middle;whiteSpace=wrap;rounded=0;" vertex="1" parent="1">
                    <mxGeometry x="320" y="100" width="20" height="20" as="geometry"/>
                </mxCell>
                <mxCell id="33" value="1" style="text;html=1;strokeColor=none;fillColor=none;align=center;verticalAlign=middle;whiteSpace=wrap;rounded=0;" vertex="1" parent="1">
                    <mxGeometry x="290" y="360" width="20" height="20" as="geometry"/>
                </mxCell>
                <mxCell id="35" value="SharePermissions" style="rounded=0;whiteSpace=wrap;html=1;" vertex="1" parent="1">
                    <mxGeometry x="520" y="280" width="120" height="40" as="geometry"/>
                </mxCell>
                <mxCell id="36" style="edgeStyle=orthogonalEdgeStyle;html=1;exitX=1;exitY=0.5;exitDx=0;exitDy=0;entryX=0.5;entryY=0;entryDx=0;entryDy=0;startArrow=diamond;startFill=1;jumpSize=11;endSize=12;startSize=12;endArrow=none;endFill=0;" edge="1" parent="1" source="11" target="35">
                    <mxGeometry relative="1" as="geometry">
                        <mxPoint x="390" y="250" as="sourcePoint"/>
                        <mxPoint x="390" y="290" as="targetPoint"/>
                    </mxGeometry>
                </mxCell>
                <mxCell id="37" value="PrivateShare" style="rounded=0;whiteSpace=wrap;html=1;fillColor=#1ba1e2;fontColor=#ffffff;strokeColor=#006EAF;" vertex="1" parent="1">
                    <mxGeometry x="520" y="360" width="120" height="40" as="geometry"/>
                </mxCell>
                <mxCell id="38" style="edgeStyle=orthogonalEdgeStyle;html=1;exitX=0.5;exitY=0;exitDx=0;exitDy=0;entryX=0.5;entryY=1;entryDx=0;entryDy=0;startArrow=diamond;startFill=1;jumpSize=11;endSize=12;startSize=12;endArrow=none;endFill=0;" edge="1" parent="1" source="37" target="35">
                    <mxGeometry relative="1" as="geometry">
                        <mxPoint x="450" y="230" as="sourcePoint"/>
                        <mxPoint x="590" y="290" as="targetPoint"/>
                    </mxGeometry>
                </mxCell>
                <mxCell id="39" value="*" style="text;html=1;strokeColor=none;fillColor=none;align=center;verticalAlign=middle;whiteSpace=wrap;rounded=0;" vertex="1" parent="1">
                    <mxGeometry x="580" y="260" width="20" height="20" as="geometry"/>
                </mxCell>
                <mxCell id="40" value="*" style="text;html=1;strokeColor=none;fillColor=none;align=center;verticalAlign=middle;whiteSpace=wrap;rounded=0;" vertex="1" parent="1">
                    <mxGeometry x="580" y="320" width="20" height="20" as="geometry"/>
                </mxCell>
                <mxCell id="41" style="edgeStyle=orthogonalEdgeStyle;jumpSize=11;html=1;exitX=0;exitY=0.5;exitDx=0;exitDy=0;entryX=1;entryY=0.5;entryDx=0;entryDy=0;startArrow=none;startFill=0;endArrow=open;endFill=0;startSize=12;endSize=12;dashed=1;" edge="1" parent="1" source="37" target="2">
                    <mxGeometry relative="1" as="geometry">
                        <mxPoint x="170" y="230" as="sourcePoint"/>
                        <mxPoint x="330" y="390" as="targetPoint"/>
                        <Array as="points">
                            <mxPoint x="460" y="380"/>
                            <mxPoint x="460" y="380"/>
                        </Array>
                    </mxGeometry>
                </mxCell>
                <mxCell id="43" value="1" style="text;html=1;strokeColor=none;fillColor=none;align=center;verticalAlign=middle;whiteSpace=wrap;rounded=0;" vertex="1" parent="1">
                    <mxGeometry x="450" y="360" width="20" height="20" as="geometry"/>
                </mxCell>
                <mxCell id="44" value="*" style="text;html=1;strokeColor=none;fillColor=none;align=center;verticalAlign=middle;whiteSpace=wrap;rounded=0;" vertex="1" parent="1">
                    <mxGeometry x="160" y="200" width="20" height="20" as="geometry"/>
                </mxCell>
                <mxCell id="45" value="*" style="text;html=1;strokeColor=none;fillColor=none;align=center;verticalAlign=middle;whiteSpace=wrap;rounded=0;" vertex="1" parent="1">
                    <mxGeometry x="500" y="360" width="20" height="20" as="geometry"/>
                </mxCell>
            </root>
        </mxGraphModel>
    </diagram>
</mxfile>